<svg xmlns="http://www.w3.org/2000/svg" viewBox="0 0 64 64" role="img" aria-labelledby="title">
  <title id="title">Sledge hammer favicon</title>
  <rect width="64" height="64" rx="14" fill="#111827" />
  <path d="M19 15h24c1.7 0 3 1.3 3 3v7c0 1.7-1.3 3-3 3H19c-1.7 0-3-1.3-3-3v-7c0-1.7 1.3-3 3-3Z" fill="#f5c542" />
  <path d="M18 18h26v4H18z" fill="#ffe08a" opacity=".9" />
  <path d="M30.2 27.1 51.5 48.4c1.2 1.2 1.2 3.1 0 4.2l-1.9 1.9c-1.2 1.2-3.1 1.2-4.2 0L24.1 33.2l6.1-6.1Z" fill="#d1d5db" />
  <path d="M26.3 31 47.6 52.3" fill="none" stroke="#6b7280" stroke-width="3" stroke-linecap="round" />
  <path d="M18 25h26c1.1 0 2 .9 2 2v1H16v-1c0-1.1.9-2 2-2Z" fill="#c99316" />
</svg>
